<?xml version="1.0" encoding="utf-8"?>
<!-- Generator: Adobe Illustrator 24.1.2, SVG Export Plug-In . SVG Version: 6.00 Build 0)  -->
<svg version="1.1" id="Layer_1" xmlns="http://www.w3.org/2000/svg" xmlns:xlink="http://www.w3.org/1999/xlink" x="0px" y="0px"
	 viewBox="0 0 48 48" style="enable-background:new 0 0 48 48;" xml:space="preserve">
<style type="text/css">
	.st0{display:none;fill:#FFD2D2;fill-opacity:0;}
	.st1{fill:none;stroke:white;stroke-width:2;stroke-linecap:round;stroke-linejoin:round;}
</style>
<g id="ic_weather_1" transform="translate(476 1273)">
	<rect id="Rectangle_7" x="-476" y="-1273" class="st0" width="48" height="48"/>
	<g id="Group_17" transform="translate(27.14 -1.12)">
		<path id="Path_32" class="st1" d="M-463.8-1238.9c0,4.3-3.9,7.8-8.5,7.8h-21.4c-4.2,0-7.8-3.1-8.4-7.3c-0.1-0.4-0.1-0.8-0.1-1.1
			c0-4.7,3.8-8.5,8.5-8.4c1.2,0,2.4,0.2,3.5,0.7c0.3-4.1,4-7.2,8.5-7.2c1.1,0,2.2,0.2,3.2,0.6c3.1,1.1,5.2,3.9,5.3,7.2v0.1
			c0.3,0,0.6,0,0.9,0c1.9,0,3.7,0.6,5.3,1.7c0.6,0.4,1.1,0.9,1.5,1.5C-464.4-1242.2-463.8-1240.6-463.8-1238.9L-463.8-1238.9z"/>
		<path id="Path_33" class="st1" d="M-464-1250.7c0,2.3-1.2,4.4-3,5.6c-1.5-1.1-3.4-1.7-5.3-1.7c-0.3,0-0.6,0-0.9,0v-0.1
			c-0.1-3.3-2.2-6.1-5.3-7.2c1.4-2.3,4-3.8,6.8-3.7C-467.4-1257.7-464-1254.6-464-1250.7z"/>
		<line id="Line_82" class="st1" x1="-471.7" y1="-1264.9" x2="-471.7" y2="-1261.6"/>
		<line id="Line_83" class="st1" x1="-482.6" y1="-1260.7" x2="-480.1" y2="-1258.4"/>
		<line id="Line_84" class="st1" x1="-462" y1="-1243.4" x2="-459.4" y2="-1241.1"/>
		<line id="Line_85" class="st1" x1="-459.8" y1="-1250.7" x2="-456.1" y2="-1250.7"/>
		<line id="Line_86" class="st1" x1="-463.3" y1="-1258.4" x2="-460.7" y2="-1260.7"/>
	</g>
</g>
</svg>
