<?xml version="1.0" encoding="utf-8"?>
<!-- Generator: Adobe Illustrator 24.1.2, SVG Export Plug-In . SVG Version: 6.00 Build 0)  -->
<svg version="1.1" id="Layer_1" xmlns="http://www.w3.org/2000/svg" xmlns:xlink="http://www.w3.org/1999/xlink" x="0px" y="0px"
	 viewBox="0 0 48 48" style="enable-background:new 0 0 48 48;" xml:space="preserve">
<style type="text/css">
	.st0{display:none;fill:#FFD2D2;fill-opacity:0;}
	.st1{fill:none;stroke:white;stroke-width:2;stroke-linecap:round;stroke-linejoin:round;}
</style>
<g id="ic_weather_3" transform="translate(280 1273)">
	<rect id="Rectangle_7" x="-280" y="-1273" class="st0" width="48" height="48"/>
	<g id="Group_19" transform="translate(22.66 -1.86)">
		<path id="Path_143" class="st1" d="M-255.7-1247.4c-1.4,3.4-4.3,6-7.8,7.1c-0.3-0.9-0.7-1.8-1.4-2.6c-0.4-0.6-1-1-1.5-1.5
			c-1.5-1.1-3.4-1.7-5.3-1.7c-0.3,0-0.6,0-0.9,0v-0.1c-0.1-3.3-2.2-6.2-5.3-7.2c-0.5-0.2-1-0.3-1.5-0.4c0.6-5,4.3-9.2,9.2-10.4
			c-2.5,6.4,0.6,13.7,7,16.2C-260.7-1247-258.1-1246.8-255.7-1247.4L-255.7-1247.4z"/>
		<path id="Path_144" class="st1" d="M-263.2-1238.2c0,4.3-3.9,7.8-8.5,7.8h-21.4c-4.3,0-7.9-3.1-8.5-7.3c-0.1-0.4-0.1-0.8-0.1-1.1
			c0-4.7,3.8-8.5,8.5-8.5c1.2,0,2.4,0.3,3.5,0.8c0.3-4.1,4-7.3,8.5-7.3c1.1,0,2.2,0.2,3.2,0.6c3.1,1.1,5.2,3.9,5.3,7.2v0.1
			c0.3,0,0.6,0,0.9,0c1.9,0,3.8,0.6,5.3,1.7c0.6,0.4,1.1,0.9,1.5,1.5c0.6,0.8,1.1,1.6,1.4,2.6
			C-263.3-1239.5-263.2-1238.9-263.2-1238.2z"/>
	</g>
</g>
</svg>
