<?xml version="1.0" encoding="utf-8"?>
<!-- Generator: Adobe Illustrator 24.1.2, SVG Export Plug-In . SVG Version: 6.00 Build 0)  -->
<svg version="1.1" id="Layer_1" xmlns="http://www.w3.org/2000/svg" xmlns:xlink="http://www.w3.org/1999/xlink" x="0px" y="0px"
	 viewBox="0 0 48 48.4" style="enable-background:new 0 0 48 48.4;" xml:space="preserve">
<style type="text/css">
	.st0{display:none;fill:#FFD2D2;fill-opacity:0;}
	.st1{fill:none;stroke:white;stroke-width:2;stroke-linecap:round;stroke-linejoin:round;}
</style>
<g id="ic_weather_11" transform="translate(672 1077)">
	<rect id="Rectangle_7" x="-672" y="-1077" class="st0" width="48" height="48"/>
	<g id="Group_30" transform="translate(30.71 -5.29)">
		<path id="Path_25" class="st1" d="M-663.4-1044.8c0,4.3-3.9,7.8-8.5,7.8h-21.4c-4.2,0-7.8-3.1-8.4-7.3c-0.1-0.4-0.1-0.8-0.1-1.1
			c0-4.7,3.8-8.5,8.5-8.5c1.2,0,2.4,0.2,3.5,0.7c0.3-4.1,4-7.2,8.5-7.2c1.1,0,2.2,0.2,3.2,0.6c3.1,1.1,5.2,3.9,5.3,7.2v0.1
			c0.3,0,0.6,0,0.9,0c1.9,0,3.7,0.6,5.3,1.7c0.6,0.4,1.1,0.9,1.5,1.5C-664-1048.1-663.4-1046.5-663.4-1044.8z"/>
		<path id="Path_26" class="st1" d="M-663.5-1056.5c0,2.3-1.2,4.4-3,5.6c-1.5-1.1-3.4-1.7-5.3-1.7c-0.3,0-0.6,0-0.9,0v-0.1
			c-0.1-3.3-2.2-6.1-5.3-7.2c1.4-2.3,4-3.8,6.8-3.7C-667-1063.6-663.5-1060.4-663.5-1056.5z"/>
		<line id="Line_51" class="st1" x1="-671.2" y1="-1070.7" x2="-671.2" y2="-1067.4"/>
		<line id="Line_52" class="st1" x1="-682.2" y1="-1066.6" x2="-679.6" y2="-1064.2"/>
		<line id="Line_53" class="st1" x1="-661.5" y1="-1049.3" x2="-659" y2="-1046.9"/>
		<line id="Line_54" class="st1" x1="-659.3" y1="-1056.5" x2="-655.7" y2="-1056.5"/>
		<line id="Line_55" class="st1" x1="-662.8" y1="-1064.2" x2="-660.3" y2="-1066.6"/>
		<line id="Line_56" class="st1" x1="-686.4" y1="-1036.5" x2="-688.2" y2="-1033.6"/>
		<line id="Line_57" class="st1" x1="-690.9" y1="-1029.1" x2="-692.6" y2="-1026.2"/>
		<line id="Line_58" class="st1" x1="-683" y1="-1033.6" x2="-684.8" y2="-1030.7"/>
		<line id="Line_59" class="st1" x1="-686.6" y1="-1027.6" x2="-688.4" y2="-1024.7"/>
		<line id="Line_60" class="st1" x1="-676.4" y1="-1036.5" x2="-678.1" y2="-1033.6"/>
		<line id="Line_61" class="st1" x1="-680.8" y1="-1029.1" x2="-682.6" y2="-1026.2"/>
	</g>
</g>
</svg>
