<?xml version="1.0" encoding="utf-8"?>
<!-- Generator: Adobe Illustrator 24.1.2, SVG Export Plug-In . SVG Version: 6.00 Build 0)  -->
<svg version="1.1" id="Layer_1" xmlns="http://www.w3.org/2000/svg" xmlns:xlink="http://www.w3.org/1999/xlink" x="0px" y="0px"
	 viewBox="0 0 48 48.2" style="enable-background:new 0 0 48 48.2;" xml:space="preserve">
<style type="text/css">
	.st0{fill:#FFD2D2;fill-opacity:0;}
	.st1{fill:none;stroke:white;stroke-width:2;stroke-linecap:round;stroke-linejoin:round;}
</style>
<g id="ic_weather_12" transform="translate(574 1077)">
	<rect id="Rectangle_7" x="-574" y="-1077" class="st0" width="48" height="48"/>
	<g id="Group_29" transform="translate(28.63 -5.33)">
		<path id="Path_20" class="st1" d="M-555.6-1054c-1.4,3.4-4.3,6-7.8,7c-0.3-0.9-0.7-1.8-1.4-2.6c-0.4-0.6-1-1-1.5-1.5
			c-1.5-1.1-3.4-1.7-5.3-1.7c-0.3,0-0.6,0-0.9,0v-0.1c-0.1-3.3-2.2-6.1-5.3-7.2c-0.5-0.2-1-0.3-1.5-0.4c0.6-5,4.3-9.1,9.2-10.4
			c-2.6,6.3,0.3,13.5,6.6,16.1C-560.9-1053.5-558.2-1053.3-555.6-1054L-555.6-1054z"/>
		<path id="Path_21" class="st1" d="M-563.4-1044.8c0,4.3-3.8,7.8-8.5,7.8h-21.3c-4.2,0-7.8-3.1-8.4-7.3c-0.1-0.4-0.1-0.8-0.1-1.1
			c0-4.7,3.8-8.4,8.5-8.4c1.2,0,2.4,0.2,3.5,0.7c0.3-4,4-7.2,8.5-7.2c1.1,0,2.2,0.2,3.2,0.6c3.1,1.1,5.2,3.9,5.3,7.2v0.1
			c0.3,0,0.6,0,0.9,0c1.9,0,3.7,0.6,5.3,1.7c0.6,0.4,1.1,0.9,1.5,1.5C-564-1048.1-563.4-1046.5-563.4-1044.8z"/>
		<line id="Line_45" class="st1" x1="-586.4" y1="-1036.5" x2="-588.2" y2="-1033.6"/>
		<line id="Line_46" class="st1" x1="-590.8" y1="-1029.2" x2="-592.6" y2="-1026.3"/>
		<line id="Line_47" class="st1" x1="-583" y1="-1033.6" x2="-584.7" y2="-1030.8"/>
		<line id="Line_48" class="st1" x1="-586.6" y1="-1027.7" x2="-588.4" y2="-1024.8"/>
		<line id="Line_49" class="st1" x1="-576.4" y1="-1036.5" x2="-578.1" y2="-1033.6"/>
		<line id="Line_50" class="st1" x1="-580.8" y1="-1029.2" x2="-582.6" y2="-1026.3"/>
	</g>
</g>
</svg>
