<?xml version="1.0" encoding="utf-8"?>
<!-- Generator: Adobe Illustrator 24.1.2, SVG Export Plug-In . SVG Version: 6.00 Build 0)  -->
<svg version="1.1" id="Layer_1" xmlns="http://www.w3.org/2000/svg" xmlns:xlink="http://www.w3.org/1999/xlink" x="0px" y="0px"
	 viewBox="0 0 48 48" style="enable-background:new 0 0 48 48;" xml:space="preserve">
<style type="text/css">
	.st0{fill:#FFD2D2;fill-opacity:0;}
	.st1{fill:none;stroke:white;stroke-width:2;stroke-linecap:round;stroke-linejoin:round;}
</style>
<g id="ic_weather_8" transform="translate(378 1175)">
	<rect id="Rectangle_7" x="-378" y="-1175" class="st0" width="48" height="48"/>
	<g id="Group_24" transform="translate(23.45 -3.97)">
		<path id="Path_16" class="st1" d="M-357.7-1148.8c0,4.4-4,8.1-8.8,8.1h-22.1c-4.4,0-8.1-3.2-8.7-7.6c-0.1-0.4-0.1-0.8-0.1-1.2
			c0-4.8,4-8.8,8.8-8.8c1.2,0,2.5,0.3,3.6,0.8c0.3-4.2,4.1-7.5,8.8-7.5c1.1,0,2.3,0.2,3.3,0.6c3.2,1.1,5.4,4.1,5.5,7.5v0.1
			c0.3,0,0.6,0,0.9,0c2,0,3.9,0.6,5.5,1.8c0.6,0.4,1.1,0.9,1.6,1.5C-358.4-1152.3-357.7-1150.6-357.7-1148.8z"/>
		<line id="Line_36" class="st1" x1="-381.6" y1="-1140.2" x2="-388" y2="-1129.6"/>
		<line id="Line_37" class="st1" x1="-378.1" y1="-1137.2" x2="-383.6" y2="-1128.1"/>
		<line id="Line_38" class="st1" x1="-371.2" y1="-1140.2" x2="-377.6" y2="-1129.6"/>
	</g>
</g>
</svg>
