<?xml version="1.0" encoding="utf-8"?>
<!-- Generator: Adobe Illustrator 24.1.2, SVG Export Plug-In . SVG Version: 6.00 Build 0)  -->
<svg version="1.1" id="Layer_1" xmlns="http://www.w3.org/2000/svg" xmlns:xlink="http://www.w3.org/1999/xlink" x="0px" y="0px"
	 viewBox="0 0 48 48" style="enable-background:new 0 0 48 48;" xml:space="preserve">
<style type="text/css">
	.st0{fill:#FFD2D2;fill-opacity:0;}
	.st1{fill:none;stroke:white;stroke-width:2;stroke-linecap:round;stroke-linejoin:round;}
</style>
<g id="ic_weather_16" transform="translate(770 979)">
	<rect id="Rectangle_7" x="-770" y="-979" class="st0" width="48" height="48"/>
	<g id="Group_32" transform="translate(32.26 -7.21)">
		<path id="Path_22" class="st1" d="M-780.7-941.1l-4.1,6.1h4.2l-4.2,6.2"/>
		<path id="Path_23" class="st1" d="M-773.1-941.2l-4.1,6.1h4.2l-4.2,6.2"/>
		<path id="Path_24" class="st1" d="M-758.5-949.6c0,4.5-4,8.1-8.8,8.1h-22.1c-4.4,0-8.1-3.2-8.7-7.6c-0.1-0.4-0.1-0.8-0.1-1.2
			c0-4.8,4-8.8,8.8-8.8c1.2,0,2.5,0.3,3.6,0.8c0.3-4.2,4.1-7.5,8.8-7.5c1.1,0,2.3,0.2,3.3,0.6c3.2,1.1,5.4,4.1,5.5,7.5v0.1
			c0.3,0,0.6,0,0.9,0c2,0,3.9,0.6,5.5,1.8c0.6,0.4,1.1,0.9,1.6,1.5C-759.2-953-758.5-951.3-758.5-949.6z"/>
	</g>
</g>
</svg>
