<?xml version="1.0" encoding="utf-8"?>
<!-- Generator: Adobe Illustrator 24.1.2, SVG Export Plug-In . SVG Version: 6.00 Build 0)  -->
<svg version="1.1" id="Layer_1" xmlns="http://www.w3.org/2000/svg" xmlns:xlink="http://www.w3.org/1999/xlink" x="0px" y="0px"
	 viewBox="0 0 48 48" style="enable-background:new 0 0 48 48;" xml:space="preserve">
<style type="text/css">
	.st0{display:none;fill:#FFD2D2;fill-opacity:0;}
	.st1{fill:none;stroke:white;stroke-width:2;stroke-linecap:round;stroke-linejoin:round;}
</style>
<g id="ic_weather_46" transform="translate(770 489)">
	<rect id="Rectangle_7" x="-770" y="-489" class="st0" width="48" height="48"/>
	<g id="Group_60" transform="translate(33 -18.04)">
		<path id="Path_41" class="st1" d="M-759.3-448.8c0,4.4-4,8.1-8.8,8.1h-22.1c-4.4,0-8.1-3.2-8.7-7.6c-0.1-0.4-0.1-0.8-0.1-1.2
			c0-4.8,4-8.8,8.8-8.8c1.2,0,2.5,0.3,3.6,0.8c0.3-4.2,4.1-7.5,8.8-7.5c1.1,0,2.3,0.2,3.3,0.6c3.2,1.1,5.4,4.1,5.5,7.5v0.1
			c0.3,0,0.6,0,0.9,0c2,0,3.9,0.6,5.5,1.8c0.6,0.4,1.1,0.9,1.6,1.5C-759.9-452.2-759.3-450.5-759.3-448.8L-759.3-448.8z"/>
		<path id="Path_42" class="st1" d="M-786.7-440.8c0,0,9.5,0.1,14.6,0c4.6-0.1,5.8-4.4,4.6-6.4c-1.2-1.9-5.4-1.1-4.2,2.4"/>
		<path id="Path_43" class="st1" d="M-784.2-434h12.1c2.9,0,4.7,1.7,4.3,3.4"/>
		<path id="Path_44" class="st1" d="M-787.2-437.1c0,0,13.6-0.1,20,0c3.4,0.1,4.9,2,4.9,3.8c0,1.8-1,3.4-2.6,4.2"/>
	</g>
</g>
</svg>
